# xmcd
#
# Track frame offsets:
#	150
#	17199
#	31927
#	44790
#	62643
#	80909
#	95995
#	114919
#	132865
#
# Disc length: 1979
#
# Revision: 1
# Processed by: cddbd v1.5.2PL0 Copyright (c) Steve Scherf et al.
# Submitted via: kJams Pro (development) 1.0patch52.30
#
DISCID=7d07b909
DTITLE=Unknown Artist - FTX–C410
DYEAR=2011
DGENRE=Country
TTITLE0=Martina McBride - I'm Gonna Love You Through This
TTITLE1=Pistol Annies - Taking Pills
TTITLE2=Jarrod Niemann - One More Drinking Song
TTITLE3=Dierks Bentley - Home
TTITLE4=Lady Antebellum - Wanted You More
TTITLE5=Eli Young Band - Crazy Girl
TTITLE6=Blake Shelton - Kiss My Country Ass
TTITLE7=Hunter Hays - Storm Warining
TTITLE8=Ronnie Dunn - How Far To Waco
EXTD=
EXTT0=
EXTT1=
EXTT2=
EXTT3=
EXTT4=
EXTT5=
EXTT6=
EXTT7=
EXTT8=
PLAYORDER=
